<?xml version="1.0" encoding="iso-8859-1"?>
<!-- Generator: Adobe Illustrator 19.0.0, SVG Export Plug-In . SVG Version: 6.00 Build 0)  -->
<svg version="1.1" id="Capa_1" xmlns="http://www.w3.org/2000/svg" xmlns:xlink="http://www.w3.org/1999/xlink" x="0px" y="0px"
	 viewBox="0 0 511.993 511.993" style="enable-background:new 0 0 511.993 511.993;" xml:space="preserve">
<linearGradient id="SVGID_1_" gradientUnits="userSpaceOnUse" x1="69.654" y1="448.2119" x2="416.1364" y2="101.7296" gradientTransform="matrix(1.0449 0 0 -1.0449 2.1993 543.3086)">
	<stop  offset="0" style="stop-color:#70EBB9"/>
	<stop  offset="1" style="stop-color:#00A552"/>
</linearGradient>
<circle style="fill:url(#SVGID_1_);" cx="255.996" cy="255.996" r="255.996"/>
<linearGradient id="SVGID_2_" gradientUnits="userSpaceOnUse" x1="89.8992" y1="274.9673" x2="395.8982" y2="274.9673" gradientTransform="matrix(1.0449 0 0 -1.0449 2.1993 543.3086)">
	<stop  offset="0" style="stop-color:#8689FF"/>
	<stop  offset="1" style="stop-color:#1B2DDD"/>
</linearGradient>
<path style="fill:url(#SVGID_2_);" d="M140.718,96.133h230.565c24.521,0,44.584,20.063,44.584,44.584v230.565
	c0,24.521-20.063,44.584-44.584,44.584H140.718c-24.521,0-44.584-20.063-44.584-44.584V140.718
	C96.133,116.196,116.196,96.133,140.718,96.133z"/>
<linearGradient id="SVGID_3_" gradientUnits="userSpaceOnUse" x1="125.0062" y1="340.2127" x2="224.8002" y2="340.2127" gradientTransform="matrix(1.0449 0 0 -1.0449 2.1993 543.3086)">
	<stop  offset="0" style="stop-color:#FF9577"/>
	<stop  offset="1" style="stop-color:#FF3200"/>
</linearGradient>
<path style="fill:url(#SVGID_3_);" d="M145.355,135.69h79.196c6.924,0,12.539,5.614,12.539,12.539v79.196
	c0,6.924-5.614,12.539-12.539,12.539h-79.196c-6.924,0-12.539-5.614-12.539-12.539v-79.196
	C132.816,141.303,138.43,135.69,145.355,135.69z"/>
<linearGradient id="SVGID_4_" gradientUnits="userSpaceOnUse" x1="262.9818" y1="340.2127" x2="362.8175" y2="340.2127" gradientTransform="matrix(1.0449 0 0 -1.0449 2.1993 543.3086)">
	<stop  offset="0" style="stop-color:#FFC858"/>
	<stop  offset="1" style="stop-color:#FF633E"/>
</linearGradient>
<path style="fill:url(#SVGID_4_);" d="M344.653,145.275l34.796,69.591c5.765,11.53-2.62,25.096-15.51,25.096h-69.59
	c-12.891,0-21.275-13.566-15.51-25.096l34.796-69.591C320.023,132.494,338.262,132.494,344.653,145.275z"/>
<linearGradient id="SVGID_5_" gradientUnits="userSpaceOnUse" x1="262.9772" y1="209.7407" x2="362.8132" y2="209.7407" gradientTransform="matrix(1.0449 0 0 -1.0449 2.1993 543.3086)">
	<stop  offset="0" style="stop-color:#48E9E8"/>
	<stop  offset="1" style="stop-color:#009EB5"/>
</linearGradient>
<circle style="fill:url(#SVGID_5_);" cx="329.138" cy="324.154" r="52.158"/>
<linearGradient id="SVGID_6_" gradientUnits="userSpaceOnUse" x1="122.982" y1="209.7428" x2="226.8274" y2="209.7428" gradientTransform="matrix(1.0449 0 0 -1.0449 2.1993 543.3086)">
	<stop  offset="0" style="stop-color:#FFF57E"/>
	<stop  offset="1" style="stop-color:#EFC400"/>
</linearGradient>
<path style="fill:url(#SVGID_6_);" d="M194.761,277.535l9.82,16.3c1.598,2.653,4.203,4.545,7.22,5.245l18.536,4.302
	c8.403,1.95,11.713,12.139,6.061,18.656l-12.468,14.376c-2.029,2.34-3.024,5.402-2.757,8.488l1.637,18.958
	c0.742,8.594-7.925,14.892-15.87,11.53l-17.525-7.416c-2.853-1.207-6.072-1.207-8.924,0l-17.525,7.416
	c-7.944,3.361-16.612-2.936-15.87-11.53l1.637-18.958c0.266-3.086-0.728-6.147-2.757-8.488l-12.468-14.376
	c-5.652-6.517-2.342-16.706,6.061-18.656l18.537-4.302c3.017-0.7,5.621-2.592,7.22-5.245l9.819-16.3
	C179.597,270.146,190.31,270.146,194.761,277.535z"/>
<g>
</g>
<g>
</g>
<g>
</g>
<g>
</g>
<g>
</g>
<g>
</g>
<g>
</g>
<g>
</g>
<g>
</g>
<g>
</g>
<g>
</g>
<g>
</g>
<g>
</g>
<g>
</g>
<g>
</g>
</svg>
